<?xml version="1.0" encoding="UTF-8"?>
<svg id="Ebene_2" data-name="Ebene 2" xmlns="http://www.w3.org/2000/svg" viewBox="0 0 8.46 17.47">
  <defs>
    <style>
      .cls-1 {
        fill: #1d1d1b;
      }
    </style>
  </defs>
  <g id="Ebene_1-2" data-name="Ebene 1">
    <path class="cls-1" d="M7.07,1s-.83,2.41,0,5.23c.36,1.23.41,2.14.35,2.78-.06.66-.39,1.26-.87,1.72-.51.49-1.31,1.19-2.04,1.67v2.33c0,.6.49,1.09,1.09,1.09h1.73v.65H1.03v-.65h1.73c.6,0,1.09-.49,1.09-1.09v-2.41c-.7-.48-1.45-1.14-1.93-1.6-.48-.46-.81-1.06-.87-1.72-.06-.64-.02-1.55.35-2.78.83-2.82,0-5.23,0-5.23h5.67M7.07,0H0l.46,1.33s.71,2.16-.01,4.62C.1,7.11-.03,8.18.06,9.11c.09.87.5,1.7,1.18,2.34.34.33.96.89,1.62,1.39v1.89c0,.05-.04.09-.09.09H.03v2.65h8.3v-2.65h-2.73c-.05,0-.09-.04-.09-.09v-1.81c.7-.51,1.36-1.12,1.73-1.47.67-.64,1.09-1.47,1.18-2.34.09-.93-.04-1.99-.38-3.16-.72-2.46-.02-4.6-.01-4.62L8.46,0h-1.39Z"/>
  </g>
</svg>