<?xml version="1.0" encoding="UTF-8"?>
<svg id="Ebene_2" data-name="Ebene 2" xmlns="http://www.w3.org/2000/svg" viewBox="0 0 5.29 8.72">
  <defs>
    <style>
      .cls-1 {
        fill: #1d1d1b;
      }
    </style>
  </defs>
  <g id="Ebene_1-2" data-name="Ebene 1">
    <path class="cls-1" d="M.72.77c.48-.51,1.15-.77,1.99-.77.78,0,1.4.22,1.87.66.47.44.7,1,.7,1.68,0,.41-.08.75-.25,1.01s-.52.64-1.04,1.14c-.38.36-.63.67-.75.92s-.17.62-.17,1.12h-1.04c0-.56.07-1.01.2-1.35s.43-.73.89-1.17l.48-.46c.14-.13.26-.27.35-.42.16-.25.24-.52.24-.79,0-.38-.12-.71-.35-1s-.62-.42-1.16-.42c-.67,0-1.13.24-1.38.73-.14.27-.23.66-.25,1.17H0C0,1.96.24,1.28.72.77ZM2,7.5h1.17v1.22h-1.17v-1.22Z"/>
  </g>
</svg>