<?xml version="1.0" encoding="UTF-8"?>
<svg id="Ebene_2" data-name="Ebene 2" xmlns="http://www.w3.org/2000/svg" viewBox="0 0 7.47 20.16">
  <defs>
    <style>
      .cls-1 {
        fill: #1d1d1b;
      }
    </style>
  </defs>
  <g id="Ebene_1-2" data-name="Ebene 1">
    <path class="cls-1" d="M5.46,1s.47,3.38.47,5.47c0,3.79-1.92,3.72-1.92,5.07v6c0,.6.42,1.09.95,1.09h1.51v.53H1v-.53h1.51c.52,0,.95-.49.95-1.09v-6c0-1.34-1.92-1.28-1.92-5.07,0-2.1.47-5.47.47-5.47h3.45M6.33,0H1.14l-.12.86c-.02.14-.48,3.47-.48,5.61,0,2.75.94,3.82,1.56,4.53.3.34.36.43.36.53v6s0,.07-.02.09H0v2.53h7.47v-2.53h-2.44s-.02-.05-.02-.09v-6c0-.11.06-.19.36-.53.62-.71,1.56-1.79,1.56-4.53,0-2.14-.46-5.47-.48-5.61l-.12-.86h0Z"/>
  </g>
</svg>