<?xml version="1.0" encoding="UTF-8"?>
<svg id="Ebene_2" data-name="Ebene 2" xmlns="http://www.w3.org/2000/svg" viewBox="0 0 15.17 14.57">
  <defs>
    <style>
      .cls-1 {
        fill: #1d1d1b;
      }
    </style>
  </defs>
  <g id="Ebene_1-2" data-name="Ebene 1">
    <path class="cls-1" d="M10.27,1v1.66h1.6c1.27,0,2.3,1.03,2.3,2.3v2.57c0,2.15-1.75,3.89-3.89,3.89h-.13c-.35,1.23-1.46,2.14-2.81,2.14h-3.97c-2.09,0-2.38-3.7-2.38-4.58V1h9.27M10.27,10.03h.01c1.37,0,2.49-1.12,2.49-2.49v-2.57c0-.5-.41-.9-.9-.9h-1.6v5.97M11.27,0H0v8.99c0,2.07.71,5.58,3.38,5.58h3.97c1.49,0,2.85-.86,3.5-2.17,2.43-.28,4.33-2.35,4.33-4.86v-2.57c0-1.82-1.48-3.3-3.3-3.3h-.6V0h0ZM11.27,5.06h.5v2.48c0,.44-.19.84-.5,1.12v-3.6h0Z"/>
  </g>
</svg>