<?xml version="1.0" encoding="UTF-8"?>
<svg id="Ebene_2" data-name="Ebene 2" xmlns="http://www.w3.org/2000/svg" viewBox="0 0 10.28 15.74">
  <defs>
    <style>
      .cls-1 {
        fill: #1d1d1b;
      }
    </style>
  </defs>
  <g id="Ebene_1-2" data-name="Ebene 1">
    <path class="cls-1" d="M9.15,1l-.21,2.59c.21.17.35.41.35.7v.76c0,.22-.08.42-.21.58-.19.22-.34.48-.37.77l-.69,8.34H2.27l-.69-8.34c-.02-.29-.18-.54-.37-.77-.13-.16-.21-.36-.21-.58v-.76c0-.29.14-.53.35-.7l-.21-2.59h8.01M10.23,0H.05l.09,1.08.18,2.17c-.2.31-.31.66-.31,1.04v.76c0,.45.16.88.44,1.22.12.15.14.21.14.21l.69,8.33.08.92h7.59l.08-.92.69-8.34s.01-.06.14-.21c.29-.34.44-.78.44-1.22v-.76c0-.37-.11-.73-.31-1.04l.18-2.17.09-1.08h0Z"/>
  </g>
</svg>