<?xml version="1.0" encoding="UTF-8"?>
<svg id="Ebene_2" data-name="Ebene 2" xmlns="http://www.w3.org/2000/svg" viewBox="0 0 7.2 11.73">
  <defs>
    <style>
      .cls-1 {
        fill: #1d1d1b;
      }
    </style>
  </defs>
  <g id="Ebene_1-2" data-name="Ebene 1">
    <path class="cls-1" d="M5.49,1s0,.3-.04,1.39c-.04,1.09.75,2.68.75,4.26s-2.19,1.73-1.58,2.53.64,1.55.64,1.55H1.94s.04-.75.64-1.55-1.58-.94-1.58-2.53.79-3.17.75-4.26c-.04-1.09-.04-1.39-.04-1.39h3.77M5.49,0H.72v1s0,.31.04,1.43c.01.36-.14.93-.29,1.52-.22.81-.46,1.73-.46,2.71,0,1.31.92,2.01,1.47,2.4-.47.82-.52,1.53-.53,1.62l-.05,1.05h5.42l-.05-1.05c0-.09-.05-.8-.53-1.62.55-.39,1.47-1.09,1.47-2.4,0-.97-.24-1.89-.46-2.71-.16-.59-.31-1.16-.29-1.52.04-1.12.04-1.43.04-1.43V0s-1,0-1,0h0Z"/>
  </g>
</svg>