<?xml version="1.0" encoding="UTF-8"?>
<svg id="Ebene_2" data-name="Ebene 2" xmlns="http://www.w3.org/2000/svg" viewBox="0 0 11.71 15.71">
  <defs>
    <style>
      .cls-1 {
        fill: #1d1d1b;
      }
    </style>
  </defs>
  <g id="Ebene_1-2" data-name="Ebene 1">
    <path class="cls-1" d="M10.71,1v.91c0,1.38-1.12,2.5-2.5,2.5h-.19v.54c0,.94-.59,1.73-1.43,2.04-.26.1-.43.34-.43.61v5.36c0,.6.49,1.09,1.09,1.09h1.73v.65H2.7v-.65h1.73c.6,0,1.09-.49,1.09-1.09v-5.36c0-.28-.17-.52-.43-.62-.84-.3-1.44-1.1-1.44-2.04v-.54h-.15c-1.38,0-2.5-1.12-2.5-2.5v-.91h9.71M11.71,0H0v1.91c0,1.65,1.14,3.03,2.67,3.4.13,1.1.83,2.07,1.85,2.53v5.12c0,.05-.04.09-.09.09H1.7v2.65h8.3v-2.65h-2.73c-.05,0-.09-.04-.09-.09v-5.13c1-.46,1.7-1.42,1.83-2.51,1.55-.36,2.71-1.75,2.71-3.41V0h0Z"/>
  </g>
</svg>