<?xml version="1.0" encoding="UTF-8"?>
<svg id="Ebene_2" data-name="Ebene 2" xmlns="http://www.w3.org/2000/svg" viewBox="0 0 9.8 19.32">
  <defs>
    <style>
      .cls-1 {
        fill: #1d1d1b;
      }
    </style>
  </defs>
  <g id="Ebene_1-2" data-name="Ebene 1">
    <path class="cls-1" d="M7.87,1s.93,2.89.93,4.98c0,3.74-3.58,3.11-3.58,5.65h0v4.95c0,.6.49,1.09,1.09,1.09h1.73v.65H1.75v-.65h1.73c.6,0,1.09-.49,1.09-1.09v-4.96c0-2.53-3.58-1.91-3.58-5.65C1,3.89,1.93,1,1.93,1h5.94M8.6,0H1.21l-.22.69c-.04.12-.98,3.07-.98,5.29,0,2.58,1.43,3.56,2.48,4.28.83.57,1.1.8,1.1,1.37v4.96c0,.05-.04.09-.09.09H.75v2.65h8.3v-2.65h-2.73c-.05,0-.09-.04-.09-.09v-4.95c0-.57.27-.8,1.1-1.37,1.05-.72,2.48-1.7,2.48-4.28,0-2.22-.94-5.16-.98-5.29l-.22-.69h0Z"/>
  </g>
</svg>